<svg xmlns="http://www.w3.org/2000/svg" width="27" height="36" viewBox="0 0 27 36" fill="none">
  <path d="M17.1005 2.57143C27.6428 2.57143 18.945 12.8477 20.7004 13.2429C22.4557 13.638 24.3002 12.6 25.5858 10.5429C26.8715 8.48571 26.7429 2.7 24.043 1.41429C21.3431 0.128567 21.3431 1.6213e-06 16.5863 0C11.8294 0 7.84388 2.57143 5.01544 5.91429C2.18701 9.25714 0.0014118 14.4 0.00142339 18C0.00143498 21.6 -0.127158 25.0714 2.05846 29.5714C4.24407 34.0714 9.25808 36 11.9579 36C14.6578 36 18.6433 35.7429 21.4717 33.1714L21.4982 33.1474C24.317 30.5848 27 28.1455 27 24.4286C27 20.7 24.5573 27.6429 21.7289 29.5714C18.9005 31.5 16.0721 33.0429 13.1151 32.2714C10.158 31.5 10.2866 31.6286 7.07248 27.6429C3.85836 23.6571 6.55824 2.57143 17.1005 2.57143Z" fill="white"/>
</svg>