<svg xmlns="http://www.w3.org/2000/svg" width="32" height="33" viewBox="0 0 32 33" fill="none">
  <path fill-rule="evenodd" clip-rule="evenodd" d="M0 15.9632C0 7.12335 7.20917 0 16.049 0C24.2022 0 30.9823 6.09347 31.9263 14.1609C32.3554 18.7095 30.8965 23.2582 27.8926 26.6911C24.803 30.0382 20.5118 32.0122 15.9632 32.0122C7.12335 32.0122 0 24.803 0 15.9632ZM4.67012 9.42606C4.59994 9.54926 4.53138 9.66961 4.46282 9.78388C4.29117 9.95552 4.377 10.213 4.63447 10.4705L5.06359 10.8996L9.69805 15.5341C10.2988 15.9632 10.6421 16.7356 10.5563 17.508C10.4705 17.8513 10.6421 18.1088 11.0712 18.1946L11.0716 18.1947C13.1313 18.7954 15.1909 19.3961 17.1647 19.9969C17.2505 20.0827 17.3363 20.0827 17.4222 20.0827C17.5938 20.0827 17.7655 19.9111 17.9371 19.7394L17.9371 19.7394C18.5379 19.0528 19.1386 18.452 19.7394 17.9371C20.2912 17.4641 20.1914 17.2084 19.8389 16.3054C19.8077 16.2252 19.7744 16.14 19.7394 16.049L19.5678 15.6199C19.0528 14.2467 18.6237 12.8735 18.452 11.4145C18.3662 10.6421 18.1946 10.213 17.508 10.2988C16.8214 10.2988 16.2206 10.0413 15.7915 9.52641L11.1571 4.89194L10.5563 4.29117C10.3846 4.11953 10.1272 4.11953 9.95552 4.20535C9.44058 4.46282 9.01147 4.72029 8.58235 5.06359C8.49652 5.14941 8.4107 5.23523 8.4107 5.40688C8.34008 5.54812 8.38568 5.63125 8.45187 5.75191C8.46612 5.77788 8.48132 5.80559 8.49652 5.836L13.9892 11.2429L14.1609 11.4145C14.59 12.1869 14.59 13.131 14.2467 13.9892C14.2467 14.0751 14.1609 14.1609 14.075 14.1609C13.2168 14.5042 12.2728 14.3325 11.5003 13.7318L6.09347 8.32488C6.00764 8.23905 5.836 8.15323 5.66435 8.15323C5.4927 8.15323 5.32106 8.23905 5.32106 8.4107C5.06917 8.72555 4.8635 9.08661 4.67012 9.42606ZM17.508 29.0942C23.6015 28.3218 28.4076 23.5156 29.0942 17.4222C29.18 16.993 29.18 16.4781 29.0942 15.8773C29.18 8.58235 23.2582 2.66053 15.9632 2.5747H15.1908C15.0191 2.5747 14.8475 2.74635 14.7616 2.918C14.6758 3.08965 14.6758 3.26129 14.8475 3.43294L15.2766 3.86206C16.5639 5.23523 17.8513 6.52258 19.1386 7.80994C19.4819 8.15323 19.7394 8.66817 19.911 9.18311C21.1984 13.6459 22.3999 18.1088 23.5156 22.3999V22.829C23.4298 23.344 22.9149 23.6015 22.4858 23.5156C22.4428 23.5156 22.3785 23.4942 22.3141 23.4727C22.2497 23.4513 22.1854 23.4298 22.1425 23.4298L18.8812 22.5716C17.3069 22.1386 15.8589 21.7418 14.5125 21.3728C12.9228 20.9371 11.4747 20.5402 10.1272 20.1685C9.18311 19.911 8.23905 19.3961 7.55247 18.7095C6.43676 17.508 5.23523 16.3065 4.11953 15.1908L3.77623 14.8475C3.69041 14.7616 3.60459 14.6758 3.43294 14.6758H3.26129C3.08965 14.7616 2.918 14.9333 2.918 15.1049V15.8773C2.918 19.6536 4.54864 23.2582 7.20917 25.8329C10.0413 28.3217 13.7318 29.5233 17.508 29.0942Z" fill="white"/>
</svg>