<svg xmlns="http://www.w3.org/2000/svg" width="31" height="31" viewBox="0 0 31 31" fill="none">
  <rect x="0.543884" y="25.5614" width="30.4561" height="5.4386" rx="2.7193" fill="white"/>
  <rect x="23.9298" y="22.8421" width="22.2982" height="7.07018" rx="3" transform="rotate(-90 23.9298 22.8421)" fill="white"/>
  <path d="M14.1404 15.2281V2.99999C14.1404 1.34314 15.4835 -1.14441e-05 17.1404 -1.14441e-05H18.2105C19.8674 -1.14441e-05 21.2105 1.34313 21.2105 2.99999V12.2281C21.2105 13.8849 19.8674 15.2281 18.2105 15.2281H14.1404Z" fill="white"/>
  <path d="M1.5 15.2281C0.671573 15.2281 0 14.5565 0 13.7281L0 3.54385C0 1.88699 1.34315 0.543847 3 0.543847H4.07018C5.72703 0.543847 7.07018 1.88699 7.07018 3.54385L7.07018 15.2281H1.5Z" fill="white"/>
  <path fill-rule="evenodd" clip-rule="evenodd" d="M0.00427246 14.1404C0.164676 19.271 4.84951 23.386 10.6053 23.386C16.4624 23.386 21.2106 19.1248 21.2106 13.8684C21.2106 9.72443 18.2594 6.19901 14.1404 4.89246V14.1316C14.1404 14.1345 14.1404 14.1375 14.1404 14.1404C14.1404 15.9426 12.5577 17.4035 10.6053 17.4035C8.65291 17.4035 7.0702 15.9426 7.07019 14.1404H0.00427246Z" fill="white"/>
</svg>