<svg xmlns="http://www.w3.org/2000/svg" width="27" height="41" viewBox="0 0 27 41" fill="none">
  <mask id="path-1-inside-1_2_127" fill="white">
    <path fill-rule="evenodd" clip-rule="evenodd" d="M0 8.13944C0 4.24512 3.11799 1.07905 6.99373 1.00146V2.45887C3.92276 2.53617 1.45703 5.04986 1.45703 8.13945C1.45703 11.229 3.92276 13.7427 6.99373 13.82V15.2774C3.11799 15.1998 0 12.0338 0 8.13944Z"/>
  </mask>
  <path fill-rule="evenodd" clip-rule="evenodd" d="M0 8.13944C0 4.24512 3.11799 1.07905 6.99373 1.00146V2.45887C3.92276 2.53617 1.45703 5.04986 1.45703 8.13945C1.45703 11.229 3.92276 13.7427 6.99373 13.82V15.2774C3.11799 15.1998 0 12.0338 0 8.13944Z" fill="white"/>
  <path d="M6.99373 1.00146H8.49373V-0.528863L6.96371 -0.498235L6.99373 1.00146ZM6.99373 2.45887L7.03147 3.9584L8.49373 3.92159V2.45887H6.99373ZM6.99373 13.82H8.49373V12.3573L7.03147 12.3205L6.99373 13.82ZM6.99373 15.2774L6.96371 16.7771L8.49373 16.8077V15.2774H6.99373ZM6.96371 -0.498235C2.27305 -0.404335 -1.5 3.42675 -1.5 8.13944H1.5C1.5 5.06349 3.96293 2.56244 7.02375 2.50116L6.96371 -0.498235ZM8.49373 2.45887V1.00146H5.49373V2.45887H8.49373ZM2.95703 8.13945C2.95703 5.86564 4.77191 4.01527 7.03147 3.9584L6.95599 0.959349C3.07362 1.05707 -0.0429655 4.23407 -0.0429655 8.13945H2.95703ZM7.03147 12.3205C4.77191 12.2636 2.95703 10.4133 2.95703 8.13945H-0.0429655C-0.0429655 12.0448 3.07362 15.2218 6.95599 15.3195L7.03147 12.3205ZM8.49373 15.2774V13.82H5.49373V15.2774H8.49373ZM-1.5 8.13944C-1.5 12.8521 2.27305 16.6832 6.96371 16.7771L7.02375 13.7777C3.96293 13.7164 1.5 11.2154 1.5 8.13944H-1.5Z" fill="white" mask="url(#path-1-inside-1_2_127)"/>
  <mask id="path-3-inside-2_2_127" fill="white">
    <path fill-rule="evenodd" clip-rule="evenodd" d="M19.2778 13.8218V14.2589H16.1811C17.2557 14.9064 18.5146 15.2789 19.8606 15.2789C23.8036 15.2789 27 12.0824 27 8.13943C27 4.19643 23.8036 1 19.8606 1C19.8456 1 19.8306 1.00005 19.8156 1.00014V2.4572C19.8306 2.45709 19.8456 2.45703 19.8606 2.45703C22.9989 2.45703 25.543 5.00113 25.543 8.13943C25.543 11.2777 22.9989 13.8218 19.8606 13.8218C19.8456 13.8218 19.8306 13.8218 19.8156 13.8217V13.8218H19.2778Z"/>
  </mask>
  <path fill-rule="evenodd" clip-rule="evenodd" d="M19.2778 13.8218V14.2589H16.1811C17.2557 14.9064 18.5146 15.2789 19.8606 15.2789C23.8036 15.2789 27 12.0824 27 8.13943C27 4.19643 23.8036 1 19.8606 1C19.8456 1 19.8306 1.00005 19.8156 1.00014V2.4572C19.8306 2.45709 19.8456 2.45703 19.8606 2.45703C22.9989 2.45703 25.543 5.00113 25.543 8.13943C25.543 11.2777 22.9989 13.8218 19.8606 13.8218C19.8456 13.8218 19.8306 13.8218 19.8156 13.8217V13.8218H19.2778Z" fill="white"/>
  <path d="M19.2778 14.2589V15.7589H20.7778V14.2589H19.2778ZM19.2778 13.8218V12.3218H17.7778V13.8218H19.2778ZM16.1811 14.2589V12.7589H10.7854L15.407 15.5437L16.1811 14.2589ZM19.8156 1.00014L19.8063 -0.499833L18.3156 -0.49063V1.00014H19.8156ZM19.8156 2.4572H18.3156V3.96889L19.8272 3.95716L19.8156 2.4572ZM19.8156 13.8217L19.8272 12.3217L18.3156 12.31V13.8217H19.8156ZM19.8156 13.8218V15.3218H21.3156V13.8218H19.8156ZM20.7778 14.2589V13.8218H17.7778V14.2589H20.7778ZM16.1811 15.7589H19.2778V12.7589H16.1811V15.7589ZM19.8606 13.7789C18.795 13.7789 17.8027 13.4848 16.9553 12.9742L15.407 15.5437C16.7086 16.3281 18.2342 16.7789 19.8606 16.7789V13.7789ZM25.5 8.13943C25.5 11.254 22.9751 13.7789 19.8606 13.7789V16.7789C24.632 16.7789 28.5 12.9109 28.5 8.13943H25.5ZM19.8606 2.5C22.9751 2.5 25.5 5.02486 25.5 8.13943H28.5C28.5 3.36801 24.632 -0.5 19.8606 -0.5V2.5ZM19.8248 2.50011C19.8367 2.50004 19.8486 2.5 19.8606 2.5V-0.5C19.8425 -0.5 19.8244 -0.499944 19.8063 -0.499833L19.8248 2.50011ZM18.3156 1.00014V2.4572H21.3156V1.00014H18.3156ZM19.8606 0.957027C19.8417 0.957027 19.8228 0.9571 19.8039 0.957247L19.8272 3.95716C19.8383 3.95707 19.8494 3.95703 19.8606 3.95703V0.957027ZM27.043 8.13943C27.043 4.1727 23.8273 0.957027 19.8606 0.957027V3.95703C22.1705 3.95703 24.043 5.82955 24.043 8.13943H27.043ZM19.8606 15.3218C23.8273 15.3218 27.043 12.1062 27.043 8.13943H24.043C24.043 10.4493 22.1705 12.3218 19.8606 12.3218V15.3218ZM19.8039 15.3216C19.8228 15.3218 19.8417 15.3218 19.8606 15.3218V12.3218C19.8494 12.3218 19.8383 12.3218 19.8272 12.3217L19.8039 15.3216ZM18.3156 13.8217V13.8218H21.3156V13.8217H18.3156ZM19.8156 12.3218H19.2778V15.3218H19.8156V12.3218Z" fill="white" mask="url(#path-3-inside-2_2_127)"/>
  <mask id="path-5-inside-3_2_127" fill="white">
    <path fill-rule="evenodd" clip-rule="evenodd" d="M7.72224 13.8453C7.53002 13.8298 7.33565 13.8218 7.13943 13.8218C3.19643 13.8218 0 17.0183 0 20.9613C0 24.558 2.65965 27.5335 6.11952 28.0284V27.955H7.72224V26.6142C7.53063 26.6337 7.3362 26.6437 7.13944 26.6437C4.00113 26.6437 1.45703 24.0996 1.45703 20.9613C1.45703 17.823 4.00113 15.2789 7.13944 15.2789H7.72224V13.8453ZM13.5504 24.1068C14.0169 23.1578 14.2789 22.0901 14.2789 20.9613C14.2789 19.8324 14.0169 18.7647 13.5504 17.8157V24.1068Z"/>
  </mask>
  <path fill-rule="evenodd" clip-rule="evenodd" d="M7.72224 13.8453C7.53002 13.8298 7.33565 13.8218 7.13943 13.8218C3.19643 13.8218 0 17.0183 0 20.9613C0 24.558 2.65965 27.5335 6.11952 28.0284V27.955H7.72224V26.6142C7.53063 26.6337 7.3362 26.6437 7.13944 26.6437C4.00113 26.6437 1.45703 24.0996 1.45703 20.9613C1.45703 17.823 4.00113 15.2789 7.13944 15.2789H7.72224V13.8453ZM13.5504 24.1068C14.0169 23.1578 14.2789 22.0901 14.2789 20.9613C14.2789 19.8324 14.0169 18.7647 13.5504 17.8157V24.1068Z" fill="white"/>
  <path d="M7.72224 13.8453H9.22224V12.4616L7.84304 12.3502L7.72224 13.8453ZM6.11952 28.0284L5.90712 29.5133L7.61952 29.7582V28.0284H6.11952ZM6.11952 27.955V26.455H4.61952V27.955H6.11952ZM7.72224 27.955V29.455H9.22224V27.955H7.72224ZM7.72224 26.6142H9.22224V24.9536L7.57021 25.1219L7.72224 26.6142ZM7.72224 15.2789V16.7789H9.22224V15.2789H7.72224ZM13.5504 24.1068H12.0504L14.8965 24.7686L13.5504 24.1068ZM13.5504 17.8157L14.8965 17.154L12.0504 17.8157H13.5504ZM7.13943 15.3218C7.29529 15.3218 7.44937 15.3281 7.60145 15.3404L7.84304 12.3502C7.61068 12.3314 7.37601 12.3218 7.13943 12.3218V15.3218ZM1.5 20.9613C1.5 17.8467 4.02486 15.3218 7.13943 15.3218V12.3218C2.36801 12.3218 -1.5 16.1898 -1.5 20.9613H1.5ZM6.33191 26.5435C3.60037 26.1528 1.5 23.801 1.5 20.9613H-1.5C-1.5 25.315 1.71893 28.9142 5.90712 29.5133L6.33191 26.5435ZM4.61952 27.955V28.0284H7.61952V27.955H4.61952ZM7.72224 26.455H6.11952V29.455H7.72224V26.455ZM6.22224 26.6142V27.955H9.22224V26.6142H6.22224ZM7.13944 28.1437C7.38707 28.1437 7.63224 28.1311 7.87427 28.1064L7.57021 25.1219C7.42903 25.1363 7.28534 25.1437 7.13944 25.1437V28.1437ZM-0.0429655 20.9613C-0.0429655 24.928 3.17271 28.1437 7.13944 28.1437V25.1437C4.82956 25.1437 2.95703 23.2711 2.95703 20.9613H-0.0429655ZM7.13944 13.7789C3.17271 13.7789 -0.0429655 16.9945 -0.0429655 20.9613H2.95703C2.95703 18.6514 4.82956 16.7789 7.13944 16.7789V13.7789ZM7.13944 16.7789H7.72224V13.7789H7.13944V16.7789ZM6.22224 13.8453V15.2789H9.22224V13.8453H6.22224ZM12.7789 20.9613C12.7789 21.8557 12.5717 22.6974 12.2042 23.4451L14.8965 24.7686C15.462 23.6182 15.7789 22.3246 15.7789 20.9613H12.7789ZM12.2042 18.4775C12.5717 19.2251 12.7789 20.0669 12.7789 20.9613H15.7789C15.7789 19.5979 15.462 18.3043 14.8965 17.154L12.2042 18.4775ZM15.0504 24.1068V17.8157H12.0504V24.1068H15.0504Z" fill="white" mask="url(#path-5-inside-3_2_127)"/>
  <mask id="path-7-inside-4_2_127" fill="white">
    <path fill-rule="evenodd" clip-rule="evenodd" d="M7.13944 26.498C7.13944 26.498 7.13943 26.498 7.13943 26.498C3.19643 26.498 0 29.6944 0 33.6374C0 37.5804 3.19643 40.7769 7.13943 40.7769C11.0824 40.7769 14.2789 37.5804 14.2789 33.6374C14.2789 33.6374 14.2789 33.6374 14.2789 33.6374L12.8218 33.6374C12.8218 36.7757 10.2777 39.3198 7.13944 39.3198C4.00113 39.3198 1.45703 36.7757 1.45703 33.6374C1.45703 30.4991 4.00113 27.955 7.13944 27.955L7.13944 26.498Z"/>
  </mask>
  <path fill-rule="evenodd" clip-rule="evenodd" d="M7.13944 26.498C7.13944 26.498 7.13943 26.498 7.13943 26.498C3.19643 26.498 0 29.6944 0 33.6374C0 37.5804 3.19643 40.7769 7.13943 40.7769C11.0824 40.7769 14.2789 37.5804 14.2789 33.6374C14.2789 33.6374 14.2789 33.6374 14.2789 33.6374L12.8218 33.6374C12.8218 36.7757 10.2777 39.3198 7.13944 39.3198C4.00113 39.3198 1.45703 36.7757 1.45703 33.6374C1.45703 30.4991 4.00113 27.955 7.13944 27.955L7.13944 26.498Z" fill="white"/>
  <path d="M7.13944 26.498L8.63944 26.498L8.63943 24.998H7.13944V26.498ZM14.2789 33.6374H15.7789V32.1374L14.2789 32.1374L14.2789 33.6374ZM12.8218 33.6374L12.8219 32.1374L11.3218 32.1374V33.6374H12.8218ZM7.13944 27.955V29.455H8.63944L8.63944 27.955L7.13944 27.955ZM7.13944 24.998C7.13944 24.998 7.13944 24.998 7.13944 24.998C7.13943 24.998 7.13943 24.998 7.13943 24.998V27.998C7.13943 27.998 7.13943 27.998 7.13943 27.998C7.13944 27.998 7.13944 27.998 7.13944 27.998V24.998ZM7.13943 24.998C2.36801 24.998 -1.5 28.866 -1.5 33.6374H1.5C1.5 30.5228 4.02486 27.998 7.13943 27.998V24.998ZM-1.5 33.6374C-1.5 38.4088 2.36801 42.2769 7.13943 42.2769V39.2769C4.02486 39.2769 1.5 36.752 1.5 33.6374H-1.5ZM7.13943 42.2769C11.9109 42.2769 15.7789 38.4088 15.7789 33.6374H12.7789C12.7789 36.752 10.254 39.2769 7.13943 39.2769V42.2769ZM15.7789 33.6374C15.7789 33.6374 15.7789 33.6374 15.7789 33.6374C15.7789 33.6374 15.7789 33.6374 15.7789 33.6374V33.6374V33.6374C15.7789 33.6374 15.7789 33.6374 15.7789 33.6374C15.7789 33.6374 15.7789 33.6374 15.7789 33.6374C15.7789 33.6374 15.7789 33.6374 15.7789 33.6374C15.7789 33.6374 15.7789 33.6374 15.7789 33.6374V33.6374V33.6374C15.7789 33.6374 15.7789 33.6374 15.7789 33.6374C15.7789 33.6374 15.7789 33.6374 15.7789 33.6374C15.7789 33.6374 15.7789 33.6374 15.7789 33.6374C15.7789 33.6374 15.7789 33.6374 15.7789 33.6374V33.6374V33.6374C15.7789 33.6374 15.7789 33.6374 15.7789 33.6374C15.7789 33.6374 15.7789 33.6374 15.7789 33.6374C15.7789 33.6374 15.7789 33.6374 15.7789 33.6374C15.7789 33.6374 15.7789 33.6374 15.7789 33.6374V33.6374V33.6374C15.7789 33.6374 15.7789 33.6374 15.7789 33.6374C15.7789 33.6374 15.7789 33.6374 15.7789 33.6374H12.7789C12.7789 33.6374 12.7789 33.6374 12.7789 33.6374C12.7789 33.6374 12.7789 33.6374 12.7789 33.6374V33.6374V33.6374C12.7789 33.6374 12.7789 33.6374 12.7789 33.6374C12.7789 33.6374 12.7789 33.6374 12.7789 33.6374C12.7789 33.6374 12.7789 33.6374 12.7789 33.6374C12.7789 33.6374 12.7789 33.6374 12.7789 33.6374V33.6374V33.6374C12.7789 33.6374 12.7789 33.6374 12.7789 33.6374C12.7789 33.6374 12.7789 33.6374 12.7789 33.6374C12.7789 33.6374 12.7789 33.6374 12.7789 33.6374C12.7789 33.6374 12.7789 33.6374 12.7789 33.6374V33.6374V33.6374C12.7789 33.6374 12.7789 33.6374 12.7789 33.6374C12.7789 33.6374 12.7789 33.6374 12.7789 33.6374C12.7789 33.6374 12.7789 33.6374 12.7789 33.6374C12.7789 33.6374 12.7789 33.6374 12.7789 33.6374V33.6374V33.6374C12.7789 33.6374 12.7789 33.6374 12.7789 33.6374C12.7789 33.6374 12.7789 33.6374 12.7789 33.6374H15.7789ZM14.2789 32.1374L12.8219 32.1374L12.8218 35.1374L14.2789 35.1374L14.2789 32.1374ZM7.13944 40.8198C11.1062 40.8198 14.3218 37.6041 14.3218 33.6374H11.3218C11.3218 35.9473 9.44932 37.8198 7.13944 37.8198V40.8198ZM-0.0429655 33.6374C-0.0429655 37.6041 3.17271 40.8198 7.13944 40.8198V37.8198C4.82956 37.8198 2.95703 35.9473 2.95703 33.6374H-0.0429655ZM7.13944 26.455C3.17271 26.455 -0.0429655 29.6707 -0.0429655 33.6374H2.95703C2.95703 31.3275 4.82956 29.455 7.13944 29.455V26.455ZM8.63944 27.955L8.63944 26.498L5.63944 26.498L5.63944 27.955L8.63944 27.955Z" fill="white" mask="url(#path-7-inside-4_2_127)"/>
  <line x1="6.99374" y1="1.70703" x2="19.9613" y2="1.70703" stroke="white" stroke-width="1.5"/>
  <line x1="6.70233" y1="14.5289" x2="20.3984" y2="14.5289" stroke="white" stroke-width="1.5"/>
  <line x1="13.5289" y1="33.6374" x2="13.5289" y2="2.16563" stroke="white" stroke-width="1.5"/>
  <line x1="5.6824" y1="27.205" x2="13.9875" y2="27.205" stroke="white" stroke-width="1.5"/>
  <mask id="path-13-inside-5_2_127" fill="white">
    <path fill-rule="evenodd" clip-rule="evenodd" d="M26.955 20.9613C26.955 24.9043 23.7586 28.1007 19.8156 28.1007C16.3666 28.1007 13.4888 25.655 12.8219 22.4033V19.5192C13.4888 16.2675 16.3666 13.8218 19.8156 13.8218C23.7586 13.8218 26.955 17.0183 26.955 20.9613ZM25.498 20.9613C25.498 24.0996 22.9539 26.6437 19.8156 26.6437C16.6773 26.6437 14.1332 24.0996 14.1332 20.9613C14.1332 17.823 16.6773 15.2789 19.8156 15.2789C22.9539 15.2789 25.498 17.823 25.498 20.9613Z"/>
  </mask>
  <path fill-rule="evenodd" clip-rule="evenodd" d="M26.955 20.9613C26.955 24.9043 23.7586 28.1007 19.8156 28.1007C16.3666 28.1007 13.4888 25.655 12.8219 22.4033V19.5192C13.4888 16.2675 16.3666 13.8218 19.8156 13.8218C23.7586 13.8218 26.955 17.0183 26.955 20.9613ZM25.498 20.9613C25.498 24.0996 22.9539 26.6437 19.8156 26.6437C16.6773 26.6437 14.1332 24.0996 14.1332 20.9613C14.1332 17.823 16.6773 15.2789 19.8156 15.2789C22.9539 15.2789 25.498 17.823 25.498 20.9613Z" fill="white"/>
  <path d="M12.8219 22.4033H11.3219V22.5556L11.3524 22.7047L12.8219 22.4033ZM12.8219 19.5192L11.3524 19.2178L11.3219 19.367V19.5192H12.8219ZM19.8156 29.6007C24.587 29.6007 28.455 25.7327 28.455 20.9613H25.455C25.455 24.0758 22.9302 26.6007 19.8156 26.6007V29.6007ZM11.3524 22.7047C12.1596 26.6402 15.6402 29.6007 19.8156 29.6007V26.6007C17.093 26.6007 14.818 24.6699 14.2913 22.1019L11.3524 22.7047ZM11.3219 19.5192V22.4033H14.3219V19.5192H11.3219ZM19.8156 12.3218C15.6402 12.3218 12.1596 15.2823 11.3524 19.2178L14.2913 19.8206C14.818 17.2527 17.093 15.3218 19.8156 15.3218V12.3218ZM28.455 20.9613C28.455 16.1898 24.587 12.3218 19.8156 12.3218V15.3218C22.9302 15.3218 25.455 17.8467 25.455 20.9613H28.455ZM19.8156 28.1437C23.7823 28.1437 26.998 24.928 26.998 20.9613H23.998C23.998 23.2711 22.1255 25.1437 19.8156 25.1437V28.1437ZM12.6332 20.9613C12.6332 24.928 15.8489 28.1437 19.8156 28.1437V25.1437C17.5057 25.1437 15.6332 23.2711 15.6332 20.9613H12.6332ZM19.8156 13.7789C15.8489 13.7789 12.6332 16.9945 12.6332 20.9613H15.6332C15.6332 18.6514 17.5057 16.7789 19.8156 16.7789V13.7789ZM26.998 20.9613C26.998 16.9945 23.7823 13.7789 19.8156 13.7789V16.7789C22.1255 16.7789 23.998 18.6514 23.998 20.9613H26.998Z" fill="white" mask="url(#path-13-inside-5_2_127)"/>
</svg>