<svg width="43" height="22" viewBox="0 0 43 22" fill="none" xmlns="http://www.w3.org/2000/svg">
<path fill-rule="evenodd" clip-rule="evenodd" d="M10 20C13.0204 20 15.728 18.6609 17.5616 16.5441C17.9624 15.8863 17.7941 15.0203 17.158 14.5631C16.641 14.1916 15.9666 14.1992 15.466 14.5316C14.1637 16.1007 12.1985 17.1 10 17.1C6.07878 17.1 2.9 13.9212 2.9 10C2.9 6.07878 6.07878 2.9 10 2.9C11.9502 2.9 13.7168 3.6863 15 4.95917V4H18.0007C16.1763 1.57111 13.2716 0 10 0C4.47715 0 0 4.47715 0 10C0 15.5228 4.47715 20 10 20Z" fill="white"/>
<path d="M27.1177 13.2744C27.8216 13.7617 28.7871 13.5861 29.2744 12.8823C29.7617 12.1784 29.5861 11.2129 28.8823 10.7256L27.1177 13.2744ZM14.1177 4.2744L27.1177 13.2744L28.8823 10.7256L15.8823 1.7256L14.1177 4.2744Z" fill="white"/>
<path fill-rule="evenodd" clip-rule="evenodd" d="M32.8636 1.12574C29.8434 1.09112 27.1206 2.39904 25.2629 4.49472C24.8546 5.14792 25.0129 6.0158 25.6438 6.48018C26.1565 6.85759 26.8309 6.85779 27.3352 6.53116C28.6555 4.97704 30.632 4.00035 32.8304 4.02555C36.7513 4.07051 39.8935 7.28552 39.8485 11.2065C39.8035 15.1274 36.5885 18.2696 32.6676 18.2246C30.7175 18.2023 28.96 17.3958 27.6915 16.1083L27.6805 17.0674L24.68 17.033C26.4764 19.4826 29.3629 21.0869 32.6343 21.1244C38.1568 21.1877 42.685 16.7622 42.7483 11.2397C42.8116 5.71725 38.3861 1.18906 32.8636 1.12574Z" fill="white"/>
<path d="M15.6699 7.65464C14.9717 7.15934 14.0042 7.32382 13.5089 8.02202C13.0136 8.72021 13.1781 9.68774 13.8763 10.183L15.6699 7.65464ZM28.5659 16.8031L15.6699 7.65464L13.8763 10.183L26.7722 19.3315L28.5659 16.8031Z" fill="white"/>
</svg>
